REM DIRINDEX 1\6,1\2\7,1\2\8,1\2\9,1\3\10,1\3\11,1\4\12,1\4\13,1\4\14,1\5\15,1\5\16,1\5\17
REM DIRNAME folder01,folder02,folder03,folder04,folder05,folder06,folder07,folder08,folder09,folder10,folder11,folder12,folder13,folder14,folder15,folder16,folder17
TITLE ""
FILE "P2Q_t_0736-0752.mp3" MP3
  TRACK 01 AUDIO
    TITLE "6:cjc040_3125"
    INDEX 01 00:00:00
  TRACK 02 AUDIO
    TITLE "0:"
    INDEX 01 00:05:44
  TRACK 03 AUDIO
    TITLE "10:cjc040_3126"
    INDEX 01 00:06:55
  TRACK 04 AUDIO
    TITLE "0:"
    INDEX 01 00:07:64
  TRACK 05 AUDIO
    TITLE "11:cjc040_3127"
    INDEX 01 00:08:38
  TRACK 06 AUDIO
    TITLE "0:"
    INDEX 01 00:10:06
  TRACK 07 AUDIO
    TITLE "10:cjc040_3128"
    INDEX 01 00:10:61
  TRACK 08 AUDIO
    TITLE "0:"
    INDEX 01 00:11:74
  TRACK 09 AUDIO
    TITLE "11:cjc040_3129"
    INDEX 01 00:12:58
  TRACK 10 AUDIO
    TITLE "0:"
    INDEX 01 00:15:52
  TRACK 11 AUDIO
    TITLE "10:cjc040_3130"
    INDEX 01 00:16:28
  TRACK 12 AUDIO
    TITLE "0:"
    INDEX 01 00:17:65
  TRACK 13 AUDIO
    TITLE "11:cjc040_3131"
    INDEX 01 00:18:50
  TRACK 14 AUDIO
    TITLE "0:"
    INDEX 01 00:21:58
  TRACK 15 AUDIO
    TITLE "10:cjc040_3132"
    INDEX 01 00:22:44
  TRACK 16 AUDIO
    TITLE "0:"
    INDEX 01 00:23:63
  TRACK 17 AUDIO
    TITLE "11:cjc040_3133"
    INDEX 01 00:24:43
  TRACK 18 AUDIO
    TITLE "0:"
    INDEX 01 00:25:72
  TRACK 19 AUDIO
    TITLE "10:cjc040_3134"
    INDEX 01 00:26:50
  TRACK 20 AUDIO
    TITLE "0:"
    INDEX 01 00:27:71
  TRACK 21 AUDIO
    TITLE "11:cjc040_3135"
    INDEX 01 00:28:49
  TRACK 22 AUDIO
    TITLE "0:"
    INDEX 01 00:30:14
  TRACK 23 AUDIO
    TITLE "10:cjc040_3136"
    INDEX 01 00:30:71
  TRACK 24 AUDIO
    TITLE "0:"
    INDEX 01 00:32:27
  TRACK 25 AUDIO
    TITLE "11:cjc040_3137"
    INDEX 01 00:33:07
  TRACK 26 AUDIO
    TITLE "0:"
    INDEX 01 00:34:38
  TRACK 27 AUDIO
    TITLE "10:cjc040_3138"
    INDEX 01 00:35:19
  TRACK 28 AUDIO
    TITLE "0:"
    INDEX 01 00:36:46
  TRACK 29 AUDIO
    TITLE "11:cjc040_3139"
    INDEX 01 00:37:28
  TRACK 30 AUDIO
    TITLE "0:"
    INDEX 01 00:41:30
  TRACK 31 AUDIO
    TITLE "10:cjc040_3140"
    INDEX 01 00:42:08
  TRACK 32 AUDIO
    TITLE "0:"
    INDEX 01 00:43:40
  TRACK 33 AUDIO
    TITLE "11:cjc040_3141"
    INDEX 01 00:44:18
  TRACK 34 AUDIO
    TITLE "0:"
    INDEX 01 00:45:61
  TRACK 35 AUDIO
    TITLE "10:cjc040_3142"
    INDEX 01 00:46:39
  TRACK 36 AUDIO
    TITLE "0:"
    INDEX 01 00:47:44
  TRACK 37 AUDIO
    TITLE "11:cjc040_3143"
    INDEX 01 00:48:22
  TRACK 38 AUDIO
    TITLE "0:"
    INDEX 01 00:49:47
  TRACK 39 AUDIO
    TITLE "10:cjc040_3144"
    INDEX 01 00:50:15
  TRACK 40 AUDIO
    TITLE "0:"
    INDEX 01 00:51:34
  TRACK 41 AUDIO
    TITLE "11:cjc040_3145"
    INDEX 01 00:52:10
  TRACK 42 AUDIO
    TITLE "0:"
    INDEX 01 00:53:02
  TRACK 43 AUDIO
    TITLE "10:cjc040_3146"
    INDEX 01 00:53:55
  TRACK 44 AUDIO
    TITLE "0:"
    INDEX 01 00:54:66
  TRACK 45 AUDIO
    TITLE "11:cjc040_3147"
    INDEX 01 00:55:42
  TRACK 46 AUDIO
    TITLE "0:"
    INDEX 01 00:56:59
  TRACK 47 AUDIO
    TITLE "10:cjc040_3148"
    INDEX 01 00:57:35
  TRACK 48 AUDIO
    TITLE "0:"
    INDEX 01 00:58:48
  TRACK 49 AUDIO
    TITLE "11:cjc040_3149"
    INDEX 01 00:59:28
  TRACK 50 AUDIO
    TITLE "0:"
    INDEX 01 01:02:18
  TRACK 51 AUDIO
    TITLE "10:cjc040_3150"
    INDEX 01 01:02:71
  TRACK 52 AUDIO
    TITLE "0:"
    INDEX 01 01:04:07
  TRACK 53 AUDIO
    TITLE "11:cjc040_3151"
    INDEX 01 01:04:56
  TRACK 54 AUDIO
    TITLE "0:"
    INDEX 01 01:06:16
  TRACK 55 AUDIO
    TITLE "10:cjc040_3152"
    INDEX 01 01:06:69
  TRACK 56 AUDIO
    TITLE "0:"
    INDEX 01 01:08:21
  TRACK 57 AUDIO
    TITLE "11:cjc040_3153"
    INDEX 01 01:08:72
  TRACK 58 AUDIO
    TITLE "0:"
    INDEX 01 01:10:30
  TRACK 59 AUDIO
    TITLE "10:cjc040_3154"
    INDEX 01 01:11:13
  TRACK 60 AUDIO
    TITLE "0:"
    INDEX 01 01:12:34
  TRACK 61 AUDIO
    TITLE "11:cjc040_3155"
    INDEX 01 01:13:12
  TRACK 62 AUDIO
    TITLE "0:"
    INDEX 01 01:15:70
  TRACK 63 AUDIO
    TITLE "10:cjc040_3156"
    INDEX 01 01:16:50
  TRACK 64 AUDIO
    TITLE "0:"
    INDEX 01 01:17:65
  TRACK 65 AUDIO
    TITLE "11:cjc040_3157"
    INDEX 01 01:18:45
  TRACK 66 AUDIO
    TITLE "0:"
    INDEX 01 01:19:56
  TRACK 67 AUDIO
    TITLE "10:cjc040_3158"
    INDEX 01 01:20:38
  TRACK 68 AUDIO
    TITLE "0:"
    INDEX 01 01:21:59
  TRACK 69 AUDIO
    TITLE "11:cjc040_3159"
    INDEX 01 01:22:37
  TRACK 70 AUDIO
    TITLE "0:"
    INDEX 01 01:24:06
